TITLE ""
FILE "P1Q_t_0089-0098.mp3" MP3
  TRACK 01 AUDIO
    TITLE "P1Q_t_0089-0098_01"
    INDEX 01 00:00:00
  TRACK 02 AUDIO
    TITLE "P1Q_t_0089-0098_02"
    INDEX 01 00:01:14
  TRACK 03 AUDIO
    TITLE "P1Q_t_0089-0098_03"
    INDEX 01 00:01:35
  TRACK 04 AUDIO
    TITLE "P1Q_t_0089-0098_04"
    INDEX 01 00:05:60
  TRACK 05 AUDIO
    TITLE "P1Q_t_0089-0098_05"
    INDEX 01 00:06:07
  TRACK 06 AUDIO
    TITLE "P1Q_t_0089-0098_06"
    INDEX 01 00:09:46
  TRACK 07 AUDIO
    TITLE "P1Q_t_0089-0098_07"
    INDEX 01 00:10:19
  TRACK 08 AUDIO
    TITLE "P1Q_t_0089-0098_08"
    INDEX 01 00:11:36
  TRACK 09 AUDIO
    TITLE "P1Q_t_0089-0098_09"
    INDEX 01 00:11:59
  TRACK 10 AUDIO
    TITLE "P1Q_t_0089-0098_10"
    INDEX 01 00:15:27
  TRACK 11 AUDIO
    TITLE "P1Q_t_0089-0098_11"
    INDEX 01 00:15:49
  TRACK 12 AUDIO
    TITLE "P1Q_t_0089-0098_12"
    INDEX 01 00:20:07
  TRACK 13 AUDIO
    TITLE "P1Q_t_0089-0098_13"
    INDEX 01 00:20:52
  TRACK 14 AUDIO
    TITLE "P1Q_t_0089-0098_14"
    INDEX 01 00:21:61
  TRACK 15 AUDIO
    TITLE "P1Q_t_0089-0098_15"
    INDEX 01 00:22:08
  TRACK 16 AUDIO
    TITLE "P1Q_t_0089-0098_16"
    INDEX 01 00:24:58
  TRACK 17 AUDIO
    TITLE "P1Q_t_0089-0098_17"
    INDEX 01 00:25:04
  TRACK 18 AUDIO
    TITLE "P1Q_t_0089-0098_18"
    INDEX 01 00:30:07
  TRACK 19 AUDIO
    TITLE "P1Q_t_0089-0098_19"
    INDEX 01 00:30:54
  TRACK 20 AUDIO
    TITLE "P1Q_t_0089-0098_20"
    INDEX 01 00:31:68
  TRACK 21 AUDIO
    TITLE "P1Q_t_0089-0098_21"
    INDEX 01 00:32:14
  TRACK 22 AUDIO
    TITLE "P1Q_t_0089-0098_22"
    INDEX 01 00:38:21
  TRACK 23 AUDIO
    TITLE "P1Q_t_0089-0098_23"
    INDEX 01 00:38:40
  TRACK 24 AUDIO
    TITLE "P1Q_t_0089-0098_24"
    INDEX 01 00:43:43
  TRACK 25 AUDIO
    TITLE "P1Q_t_0089-0098_25"
    INDEX 01 00:44:15
  TRACK 26 AUDIO
    TITLE "P1Q_t_0089-0098_26"
    INDEX 01 00:45:33
  TRACK 27 AUDIO
    TITLE "P1Q_t_0089-0098_27"
    INDEX 01 00:45:54
  TRACK 28 AUDIO
    TITLE "P1Q_t_0089-0098_28"
    INDEX 01 00:48:60
  TRACK 29 AUDIO
    TITLE "P1Q_t_0089-0098_29"
    INDEX 01 00:49:05
  TRACK 30 AUDIO
    TITLE "P1Q_t_0089-0098_30"
    INDEX 01 00:52:50
  TRACK 31 AUDIO
    TITLE "P1Q_t_0089-0098_31"
    INDEX 01 00:53:20
  TRACK 32 AUDIO
    TITLE "P1Q_t_0089-0098_32"
    INDEX 01 00:54:43
  TRACK 33 AUDIO
    TITLE "P1Q_t_0089-0098_33"
    INDEX 01 00:54:65
  TRACK 34 AUDIO
    TITLE "P1Q_t_0089-0098_34"
    INDEX 01 00:58:63
  TRACK 35 AUDIO
    TITLE "P1Q_t_0089-0098_35"
    INDEX 01 00:59:07
  TRACK 36 AUDIO
    TITLE "P1Q_t_0089-0098_36"
    INDEX 01 01:05:06
  TRACK 37 AUDIO
    TITLE "P1Q_t_0089-0098_37"
    INDEX 01 01:05:51
  TRACK 38 AUDIO
    TITLE "P1Q_t_0089-0098_38"
    INDEX 01 01:06:60
  TRACK 39 AUDIO
    TITLE "P1Q_t_0089-0098_39"
    INDEX 01 01:07:07
  TRACK 40 AUDIO
    TITLE "P1Q_t_0089-0098_40"
    INDEX 01 01:09:53
  TRACK 41 AUDIO
    TITLE "P1Q_t_0089-0098_41"
    INDEX 01 01:09:72
  TRACK 42 AUDIO
    TITLE "P1Q_t_0089-0098_42"
    INDEX 01 01:15:20
  TRACK 43 AUDIO
    TITLE "P1Q_t_0089-0098_43"
    INDEX 01 01:15:65
  TRACK 44 AUDIO
    TITLE "P1Q_t_0089-0098_44"
    INDEX 01 01:17:33
  TRACK 45 AUDIO
    TITLE "P1Q_t_0089-0098_45"
    INDEX 01 01:17:52
  TRACK 46 AUDIO
    TITLE "P1Q_t_0089-0098_46"
    INDEX 01 01:20:19
  TRACK 47 AUDIO
    TITLE "P1Q_t_0089-0098_47"
    INDEX 01 01:20:39
  TRACK 48 AUDIO
    TITLE "P1Q_t_0089-0098_48"
    INDEX 01 01:24:29
  TRACK 49 AUDIO
    TITLE "P1Q_t_0089-0098_49"
    INDEX 01 01:25:01
  TRACK 50 AUDIO
    TITLE "P1Q_t_0089-0098_50"
    INDEX 01 01:26:28
  TRACK 51 AUDIO
    TITLE "P1Q_t_0089-0098_51"
    INDEX 01 01:26:49
  TRACK 52 AUDIO
    TITLE "P1Q_t_0089-0098_52"
    INDEX 01 01:29:42
  TRACK 53 AUDIO
    TITLE "P1Q_t_0089-0098_53"
    INDEX 01 01:29:63
  TRACK 54 AUDIO
    TITLE "P1Q_t_0089-0098_54"
    INDEX 01 01:34:31
  TRACK 55 AUDIO
    TITLE "P1Q_t_0089-0098_55"
    INDEX 01 01:35:03
  TRACK 56 AUDIO
    TITLE "P1Q_t_0089-0098_56"
    INDEX 01 01:36:22
  TRACK 57 AUDIO
    TITLE "P1Q_t_0089-0098_57"
    INDEX 01 01:36:44
  TRACK 58 AUDIO
    TITLE "P1Q_t_0089-0098_58"
    INDEX 01 01:38:68
  TRACK 59 AUDIO
    TITLE "P1Q_t_0089-0098_59"
    INDEX 01 01:39:13
  TRACK 60 AUDIO
    TITLE "P1Q_t_0089-0098_60"
    INDEX 01 01:44:33
